<svg id="Layer_1" viewBox="0 0 64 64" xmlns="http://www.w3.org/2000/svg" data-name="Layer 1"><path d="m39.124 2.5h-25.124a4 4 0 0 0 -4 4v50a4 4 0 0 0 4 4h36a4 4 0 0 0 4-4v-39.124z" fill="#ededed"/><path d="m53.707 17.083-14.29-14.29a1 1 0 0 0 -1.707.707v11.29a4 4 0 0 0 4 4h11.29a1 1 0 0 0 .707-1.707z" fill="#c6c6c6"/><path d="m53 43.393h-22.914l-2.4-2.745a2 2 0 0 0 -1.505-.683h-15.181a2 2 0 0 0 -2 2v14.535a5.006 5.006 0 0 0 5 5h36a5.006 5.006 0 0 0 5-5v-11.107a2 2 0 0 0 -2-2z" fill="#310349"/><path d="m29.07 9.525a1 1 0 0 0 1-1v-.525a1 1 0 0 0 -1-1h-2.778v-2.517h-5.362a1 1 0 0 0 -1 1v.517a1 1 0 0 0 1 1h2.778v2.525h-2.778a1 1 0 0 0 -1 1v.521a1 1 0 0 0 1 1h2.778v2.521h-2.778a1 1 0 0 0 -1 1v.521a1 1 0 0 0 1 1h2.778v2.521h-2.778a1 1 0 0 0 -1 1v.521a1 1 0 0 0 1 1h2.778v2.521h-2.778a1 1 0 0 0 -1 1v.521a1 1 0 0 0 1 1h2.778v1.522a1 1 0 0 0 1 1h4.362a1 1 0 0 0 1-1v-.522a1 1 0 0 0 -1-1h-2.778v-2.521h2.778a1 1 0 0 0 1-1v-.521a1 1 0 0 0 -1-1h-2.778v-2.521h2.778a1 1 0 0 0 1-1v-.521a1 1 0 0 0 -1-1h-2.778v-2.521h2.778a1 1 0 0 0 1-1v-.521a1 1 0 0 0 -1-1h-2.778v-2.521z" fill="#c6c6c6"/><path d="m19.93 34.511a1 1 0 0 0 1 1h8.14a1 1 0 0 0 1-1v-3.3h-10.14z" fill="#c6c6c6"/><g fill="#fff"><path d="m24.251 54.032h-1.218v3.529h-1.908v-8.928h3.575a3.734 3.734 0 0 1 1.2.18 2.48 2.48 0 0 1 .914.528 2.35 2.35 0 0 1 .586.87 3.233 3.233 0 0 1 .209 1.2 2.363 2.363 0 0 1 -.4 1.374 2.25 2.25 0 0 1 -1.14.847l1.931 3.929h-2.126zm.114-3.767h-1.332v2.135h1.14a5.1 5.1 0 0 0 .552-.029 1.438 1.438 0 0 0 .492-.135.863.863 0 0 0 .348-.3.966.966 0 0 0 .132-.539 1.4 1.4 0 0 0 -.084-.517.83.83 0 0 0 -.24-.341 1.527 1.527 0 0 0 -1.008-.274z"/><path d="m33.269 55.688h-2.532l-.516 1.873h-1.921l2.58-8.928h2.256l2.544 8.928h-1.931zm-2.1-1.631h1.68l-.816-3.168z"/><path d="m41.585 56.868a2.735 2.735 0 0 1 -.96.633 3.311 3.311 0 0 1 -1.14.18 3.457 3.457 0 0 1 -1.656-.367 3.187 3.187 0 0 1 -1.116-.977 4.153 4.153 0 0 1 -.63-1.41 6.877 6.877 0 0 1 -.2-1.662 8.02 8.02 0 0 1 .2-1.807 4.4 4.4 0 0 1 .644-1.512 3.245 3.245 0 0 1 1.182-1.046 3.825 3.825 0 0 1 1.8-.389 3.625 3.625 0 0 1 1.884.52 2.643 2.643 0 0 1 .768.722 4.354 4.354 0 0 1 .564 1.17l-1.776.468a2.747 2.747 0 0 0 -.63-.93 1.526 1.526 0 0 0 -1.05-.318 1.209 1.209 0 0 0 -.882.32 2.161 2.161 0 0 0 -.51.793 3.9 3.9 0 0 0 -.234 1 9.182 9.182 0 0 0 -.054.926 7.074 7.074 0 0 0 .066.913 3.508 3.508 0 0 0 .254.937 1.935 1.935 0 0 0 .532.726 1.326 1.326 0 0 0 .888.291 1.587 1.587 0 0 0 1.2-.476 1.616 1.616 0 0 0 .456-1h-1.64v-1.633h3.516v4.621h-1.476z"/></g></svg>